name D:\school\WTK\thesis\model\3dpredictsim\Results\debug_batch\Pog_s1_tmt_bCst_d05_k1000_ig24.mot
datacolumns 128
datarows 4
range 0.00000000 0.03234744
endheader
time	pelvis_tilt	pelvis_list	pelvis_rotation	pelvis_tx	pelvis_ty	pelvis_tz	hip_flexion_l	hip_adduction_l	hip_rotation_l	hip_flexion_r	hip_adduction_r	hip_rotation_r	knee_angle_l	knee_angle_r	ankle_angle_l	ankle_angle_r	subtalar_angle_l	subtalar_angle_r	tmt_angle_l	tmt_angle_r	mtp_angle_l	mtp_angle_r	lumbar_extension	lumbar_bending	lumbar_rotation	arm_flex_l	arm_add_l	arm_rot_l	arm_flex_r	arm_add_r	arm_rot_r	elbow_flex_l	elbow_flex_r	pro_sup_l	pro_sup_r	glut_med1_l/activation	glut_med2_l/activation	glut_med3_l/activation	glut_min1_l/activation	glut_min2_l/activation	glut_min3_l/activation	semimem_l/activation	semiten_l/activation	bifemlh_l/activation	bifemsh_l/activation	sar_l/activation	add_long_l/activation	add_brev_l/activation	add_mag1_l/activation	add_mag2_l/activation	add_mag3_l/activation	tfl_l/activation	pect_l/activation	grac_l/activation	glut_max1_l/activation	glut_max2_l/activation	glut_max3_l/activation	iliacus_l/activation	psoas_l/activation	quad_fem_l/activation	gem_l/activation	peri_l/activation	rect_fem_l/activation	vas_med_l/activation	vas_int_l/activation	vas_lat_l/activation	med_gas_l/activation	lat_gas_l/activation	soleus_l/activation	tib_post_l/activation	flex_dig_l/activation	flex_hal_l/activation	tib_ant_l/activation	per_brev_l/activation	per_long_l/activation	per_tert_l/activation	ext_dig_l/activation	ext_hal_l/activation	ercspn_l/activation	intobl_l/activation	extobl_l/activation	glut_med1_r/activation	glut_med2_r/activation	glut_med3_r/activation	glut_min1_r/activation	glut_min2_r/activation	glut_min3_r/activation	semimem_r/activation	semiten_r/activation	bifemlh_r/activation	bifemsh_r/activation	sar_r/activation	add_long_r/activation	add_brev_r/activation	add_mag1_r/activation	add_mag2_r/activation	add_mag3_r/activation	tfl_r/activation	pect_r/activation	grac_r/activation	glut_max1_r/activation	glut_max2_r/activation	glut_max3_r/activation	iliacus_r/activation	psoas_r/activation	quad_fem_r/activation	gem_r/activation	peri_r/activation	rect_fem_r/activation	vas_med_r/activation	vas_int_r/activation	vas_lat_r/activation	med_gas_r/activation	lat_gas_r/activation	soleus_r/activation	tib_post_r/activation	flex_dig_r/activation	flex_hal_r/activation	tib_ant_r/activation	per_brev_r/activation	per_long_r/activation	per_tert_r/activation	ext_dig_r/activation	ext_hal_r/activation	ercspn_r/activation	intobl_r/activation	extobl_r/activation	
          0.00000000	         -2.92918641	         -2.17892255	          5.36832849	          0.00000000	          0.85844610	         -0.00203806	        -17.74892482	         -1.71206754	          7.16531694	         31.71116158	          3.12554864	         -1.92603149	         -7.83611640	        -15.66577393	          0.07966890	          6.24413377	         11.31898497	         -1.76468566	          1.73632143	          0.03537386	         21.81387164	         -0.11736018	         -1.95090332	          0.63374687	         -1.87192401	          7.40912590	        -13.45947742	         17.56003655	         -8.22295011	        -13.55140644	          7.95997421	         34.96634729	         14.24640773	         86.51662706	         86.51662706	          0.31118046	          0.10628239	          0.07599526	          0.33421671	          0.22202968	          0.11029488	          0.05000046	          0.05000007	          0.05000004	          0.07652157	          0.11049337	          0.05381497	          0.05000017	          0.05000014	          0.05000030	          0.05000019	          0.31107428	          0.05000155	          0.05000016	          0.05000076	          0.05000054	          0.05000033	          0.34526327	          0.57572972	          0.05000003	          0.05000014	          0.05000008	          0.18757127	          0.07272860	          0.05000103	          0.05000112	          0.30725938	          0.41722003	          0.29980846	          0.25807921	          0.26733381	          0.34207413	          0.05000000	          0.06941174	          0.17573535	          0.05000008	          0.05000001	          0.05000005	          0.05000000	          0.05000000	          0.05000001	          0.05000006	          0.05000008	          0.05000170	          0.05000006	          0.05000008	          0.05000023	          0.05898534	          0.05898531	          0.14743149	          0.05000015	          0.05000068	          0.09570358	          0.15017875	          0.19634599	          0.16315310	          0.10517840	          0.05898531	          0.05036030	          0.05898551	          0.05000448	          0.06958527	          0.10210691	          0.05000011	          0.05000017	          0.21628105	          0.05010441	          0.05000045	          0.05000103	          0.12460463	          0.12858157	          0.10669016	          0.05898537	          0.05500641	          0.05898538	          0.05000001	          0.05000025	          0.05000037	          0.50266421	          0.35408963	          0.20461649	          0.27251102	          0.55659849	          0.24270056	          0.06533022	          0.10418398	          0.10857062	
          0.01078248	         -2.92322966	         -2.27486427	          5.63752401	          0.01621615	          0.85742217	         -0.00182965	        -17.54158562	         -2.00687265	          6.93224609	         31.06223733	          3.50827809	         -1.72553220	         -9.87693045	        -15.46545756	         -0.72278869	          5.67429077	         12.29187757	         -2.24778427	          1.49396196	          0.04315023	         22.87666129	         -0.10211390	         -1.75577540	          0.86441866	         -1.94666399	          7.21541139	        -13.47563571	         17.77041588	         -9.24431481	        -13.54759197	          7.78192930	         36.05726345	         14.13161046	         86.51662706	         86.51662706	          0.26377756	          0.09009213	          0.06441885	          0.28330465	          0.18820735	          0.09349340	          0.05000163	          0.05000020	          0.05000038	          0.06486485	          0.09366171	          0.13681989	          0.09948836	          0.06958555	          0.05007455	          0.06957199	          0.26368758	          0.07406033	          0.05003339	          0.05000101	          0.05000072	          0.05000095	          0.29266844	          0.51651947	          0.05160445	          0.06954552	          0.05898548	          0.15899807	          0.06172207	          0.15899723	          0.15899655	          0.26045376	          0.35366383	          0.25413787	          0.21876538	          0.22661031	          0.28996519	          0.05000000	          0.05883809	          0.15069525	          0.05000002	          0.05000000	          0.05000004	          0.05000001	          0.06958554	          0.05000001	          0.05287616	          0.05000054	          0.05000008	          0.05000174	          0.05000068	          0.05000021	          0.05000001	          0.05000004	          0.12497292	          0.05000004	          0.05000047	          0.08112493	          0.12730171	          0.27750926	          0.19820250	          0.09331503	          0.05000008	          0.05000075	          0.05000024	          0.05898532	          0.05898545	          0.11154759	          0.05000010	          0.05000024	          0.51696367	          0.12508075	          0.09839259	          0.06958558	          0.22213278	          0.22510845	          0.19156620	          0.05000000	          0.05000000	          0.05000000	          0.05185224	          0.06958540	          0.05702013	          0.57644924	          0.34827762	          0.21507203	          0.46127526	          0.59077176	          0.23135454	          0.05537831	          0.08831337	          0.09203178	
          0.02156496	         -2.91310777	         -2.36948703	          5.88270114	          0.03271991	          0.85636841	         -0.00163701	        -17.26094534	         -2.29181419	          6.68772009	         30.26199275	          3.83033263	         -1.45352383	        -12.04320467	        -15.75711146	         -1.68941920	          5.11366836	         13.19816185	         -2.76110127	          1.24313764	         -0.03011799	         23.77310749	         -0.15135966	         -1.53984704	          1.09984528	         -2.01134638	          6.93618136	        -13.49295218	         17.90779035	        -10.28042221	        -13.54744233	          7.64121248	         37.12580669	         14.05283994	         86.51662706	         86.51662706	          0.36437372	          0.07636817	          0.05460581	          0.24014822	          0.15953726	          0.07925132	          0.05000079	          0.05000018	          0.05000017	          0.05498383	          0.07939410	          0.15508653	          0.16373028	          0.05898570	          0.05898460	          0.05897446	          0.22351953	          0.08229731	          0.05216036	          0.05006601	          0.05012476	          0.05898438	          0.24808554	          0.48620862	          0.05898534	          0.05895161	          0.05000009	          0.13477749	          0.08620729	          0.13477684	          0.13477626	          0.22077817	          0.29978931	          0.21542439	          0.18544030	          0.19209021	          0.24579407	          0.05000001	          0.05000013	          0.19641777	          0.05000003	          0.05000006	          0.05000006	          0.05725667	          0.05898539	          0.05213222	          0.29418336	          0.05000003	          0.32705727	          0.05000009	          0.05000008	          0.27445988	          0.08733628	          0.05000019	          0.12868072	          0.05000005	          0.05000022	          0.08209064	          0.19960739	          0.23523567	          0.16801041	          0.12439484	          0.05000025	          0.06427482	          0.13252975	          0.05000005	          0.05000007	          0.09455532	          0.05898519	          0.05000057	          0.43821326	          0.10602691	          0.17852315	          0.05898544	          0.18829474	          0.19081713	          0.16238444	          0.05898540	          0.05898540	          0.05898539	          0.05898537	          0.05898535	          0.05898537	          0.48863725	          0.34035237	          0.18230959	          0.39100837	          0.61448087	          0.19611172	          0.05000001	          0.09687759	          0.07801234	
          0.03234744	         -2.90068040	         -2.46266633	          6.09594249	          0.04933519	          0.85529689	         -0.00143346	        -16.88486855	         -2.56451377	          6.44237260	         29.32801909	          4.11534380	         -1.17189818	        -14.35348555	        -16.05937865	         -2.77318002	          4.72415233	         14.03084502	         -3.28692517	          0.96388014	         -0.01576053	         24.40580430	         -0.15760491	         -1.32080655	          1.33814886	         -2.06647489	          6.59737541	        -13.51525601	         17.98399546	        -11.28499217	        -13.55013216	          7.55875090	         38.15899533	         13.97882958	         86.51662706	         86.51662706	          0.30886787	          0.06473482	          0.05000000	          0.30411783	          0.13523456	          0.06717878	          0.05000095	          0.05000004	          0.05000003	          0.05000006	          0.06730010	          0.15918164	          0.13878895	          0.05000034	          0.05000023	          0.05000013	          0.18947314	          0.06976181	          0.05000012	          0.05000025	          0.05000015	          0.05000010	          0.21029405	          0.44077224	          0.05000001	          0.05000009	          0.05000005	          0.11424649	          0.09484994	          0.11424613	          0.11424609	          0.18714646	          0.25412163	          0.18260823	          0.15719171	          0.16282865	          0.20835165	          0.10966677	          0.14560456	          0.16649702	          0.06769661	          0.17194606	          0.05000054	          0.08880019	          0.05000000	          0.05000000	          0.34117074	          0.30139399	          0.38285389	          0.18940633	          0.17876837	          0.23265083	          0.07403219	          0.11761717	          0.10907849	          0.08209042	          0.05000074	          0.06958558	          0.16920069	          0.19940173	          0.15025452	          0.15624702	          0.05000008	          0.05448381	          0.11234192	          0.22946373	          0.17145370	          0.14013210	          0.05000003	          0.05000003	          0.37145912	          0.08987565	          0.15132838	          0.05000004	          0.15961148	          0.22240659	          0.15855013	          0.05000001	          0.05000002	          0.05000000	          0.05000000	          0.05000011	          0.05000005	          0.61350899	          0.37520647	          0.18777369	          0.64569444	          0.66483317	          0.34607706	          0.07410406	          0.08211999	          0.06612852	
